<?xml version="1.0" encoding="UTF-8" standalone="no"?>
<!DOCTYPE svg PUBLIC "-//W3C//DTD SVG 1.1//EN"
 "http://www.w3.org/Graphics/SVG/1.1/DTD/svg11.dtd">
<!-- Generated by graphviz version 2.43.0 (0)
 -->
<!-- Title: %3 Pages: 1 -->
<svg width="4136pt" height="238pt"
 viewBox="0.00 0.00 4136.00 237.74" xmlns="http://www.w3.org/2000/svg" xmlns:xlink="http://www.w3.org/1999/xlink">
<g id="graph0" class="graph" transform="scale(1 1) rotate(0) translate(36 201.74)">
<title>%3</title>
<polygon fill="dimgray" stroke="transparent" points="-36,36 -36,-201.74 4100,-201.74 4100,36 -36,36"/>
<text text-anchor="middle" x="2032" y="-150.54" font-family="Helvetica,sans-Serif" font-size="14.00">Sweep&#39;s Plan &amp; Progress</text>
<!-- start -->
<g id="node1" class="node">
<title>start</title>
</g>
<!-- b667a902&#45;8881&#45;4183&#45;a8d7&#45;c2a92be8392e -->
<g id="node3" class="node">
<title>b667a902&#45;8881&#45;4183&#45;a8d7&#45;c2a92be8392e</title>
<ellipse fill="#0ee832" stroke="black" cx="321.5" cy="-99.87" rx="269.32" ry="26.74"/>
<text text-anchor="middle" x="321.5" y="-103.67" font-family="Helvetica,sans-Serif" font-size="14.00">✓ Create</text>
<text text-anchor="middle" x="321.5" y="-88.67" font-family="Helvetica,sans-Serif" font-size="14.00">solution_accelerators/ChatAppInterface/README.md</text>
</g>
<!-- start&#45;&gt;b667a902&#45;8881&#45;4183&#45;a8d7&#45;c2a92be8392e -->
<g id="edge14" class="edge">
<title>start&#45;&gt;b667a902&#45;8881&#45;4183&#45;a8d7&#45;c2a92be8392e</title>
<path fill="none" stroke="black" d="M1.02,-99.87C3.98,-99.87 19.3,-99.87 41.79,-99.87"/>
<polygon fill="black" stroke="black" points="41.84,-103.37 51.84,-99.87 41.84,-96.37 41.84,-103.37"/>
<text text-anchor="middle" x="26.55" y="-106.67" font-family="Helvetica,sans-Serif" font-size="14.00">Start</text>
</g>
<!-- end -->
<g id="node2" class="node">
<title>end</title>
</g>
<!-- 8a1e5688&#45;c758&#45;4f21&#45;8a02&#45;cc1cf1b67948 -->
<g id="node4" class="node">
<title>8a1e5688&#45;c758&#45;4f21&#45;8a02&#45;cc1cf1b67948</title>
<ellipse fill="#0ee832" stroke="black" cx="907.5" cy="-99.87" rx="272.47" ry="26.74"/>
<text text-anchor="middle" x="907.5" y="-103.67" font-family="Helvetica,sans-Serif" font-size="14.00">✓ Create</text>
<text text-anchor="middle" x="907.5" y="-88.67" font-family="Helvetica,sans-Serif" font-size="14.00">solution_accelerators/ChatAppInterface/package.json</text>
</g>
<!-- b667a902&#45;8881&#45;4183&#45;a8d7&#45;c2a92be8392e&#45;&gt;8a1e5688&#45;c758&#45;4f21&#45;8a02&#45;cc1cf1b67948 -->
<g id="edge2" class="edge">
<title>b667a902&#45;8881&#45;4183&#45;a8d7&#45;c2a92be8392e&#45;&gt;8a1e5688&#45;c758&#45;4f21&#45;8a02&#45;cc1cf1b67948</title>
<path fill="none" stroke="black" d="M591.04,-99.87C602.43,-99.87 613.82,-99.87 625.22,-99.87"/>
<polygon fill="black" stroke="black" points="625.23,-103.37 635.23,-99.87 625.23,-96.37 625.23,-103.37"/>
</g>
<!-- 7b0d3174&#45;107f&#45;4b57&#45;8574&#45;67aae83434aa -->
<g id="node10" class="node">
<title>7b0d3174&#45;107f&#45;4b57&#45;8574&#45;67aae83434aa</title>
<polygon fill="#0ee832" stroke="black" points="600.5,-36 26.5,-36 26.5,0 600.5,0 600.5,-36"/>
<text text-anchor="middle" x="313.5" y="-14.3" font-family="Helvetica,sans-Serif" font-size="14.00">✓ Run GitHub Actions for `solution_accelerators/ChatAppInterface/README.md`</text>
</g>
<!-- b667a902&#45;8881&#45;4183&#45;a8d7&#45;c2a92be8392e&#45;&gt;7b0d3174&#45;107f&#45;4b57&#45;8574&#45;67aae83434aa -->
<g id="edge1" class="edge">
<title>b667a902&#45;8881&#45;4183&#45;a8d7&#45;c2a92be8392e&#45;&gt;7b0d3174&#45;107f&#45;4b57&#45;8574&#45;67aae83434aa</title>
<path fill="none" stroke="black" stroke-dasharray="5,2" d="M318.88,-72.72C318.03,-64.27 317.09,-54.89 316.24,-46.36"/>
<polygon fill="black" stroke="black" points="319.7,-45.75 315.22,-36.15 312.73,-46.45 319.7,-45.75"/>
</g>
<!-- 71fe2871&#45;95eb&#45;4096&#45;9655&#45;e5376c703143 -->
<g id="node5" class="node">
<title>71fe2871&#45;95eb&#45;4096&#45;9655&#45;e5376c703143</title>
<ellipse fill="#0ee832" stroke="black" cx="1487.5" cy="-99.87" rx="249.72" ry="26.74"/>
<text text-anchor="middle" x="1487.5" y="-103.67" font-family="Helvetica,sans-Serif" font-size="14.00">✓ Create</text>
<text text-anchor="middle" x="1487.5" y="-88.67" font-family="Helvetica,sans-Serif" font-size="14.00">solution_accelerators/ChatAppInterface/server.js</text>
</g>
<!-- 8a1e5688&#45;c758&#45;4f21&#45;8a02&#45;cc1cf1b67948&#45;&gt;71fe2871&#45;95eb&#45;4096&#45;9655&#45;e5376c703143 -->
<g id="edge4" class="edge">
<title>8a1e5688&#45;c758&#45;4f21&#45;8a02&#45;cc1cf1b67948&#45;&gt;71fe2871&#45;95eb&#45;4096&#45;9655&#45;e5376c703143</title>
<path fill="none" stroke="black" d="M1179.94,-99.87C1195.71,-99.87 1211.48,-99.87 1227.25,-99.87"/>
<polygon fill="black" stroke="black" points="1227.61,-103.37 1237.61,-99.87 1227.61,-96.37 1227.61,-103.37"/>
</g>
<!-- ea462787&#45;1ee4&#45;45e9&#45;883d&#45;dba02ca94382 -->
<g id="node11" class="node">
<title>ea462787&#45;1ee4&#45;45e9&#45;883d&#45;dba02ca94382</title>
<polygon fill="#0ee832" stroke="black" points="1196.5,-36 618.5,-36 618.5,0 1196.5,0 1196.5,-36"/>
<text text-anchor="middle" x="907.5" y="-14.3" font-family="Helvetica,sans-Serif" font-size="14.00">✓ Run GitHub Actions for `solution_accelerators/ChatAppInterface/package.json`</text>
</g>
<!-- 8a1e5688&#45;c758&#45;4f21&#45;8a02&#45;cc1cf1b67948&#45;&gt;ea462787&#45;1ee4&#45;45e9&#45;883d&#45;dba02ca94382 -->
<g id="edge3" class="edge">
<title>8a1e5688&#45;c758&#45;4f21&#45;8a02&#45;cc1cf1b67948&#45;&gt;ea462787&#45;1ee4&#45;45e9&#45;883d&#45;dba02ca94382</title>
<path fill="none" stroke="black" stroke-dasharray="5,2" d="M907.5,-72.72C907.5,-64.27 907.5,-54.89 907.5,-46.36"/>
<polygon fill="black" stroke="black" points="911,-46.15 907.5,-36.15 904,-46.15 911,-46.15"/>
</g>
<!-- 3f5f2a92&#45;a932&#45;4e95&#45;9307&#45;173ba9678691 -->
<g id="node6" class="node">
<title>3f5f2a92&#45;a932&#45;4e95&#45;9307&#45;173ba9678691</title>
<ellipse fill="#0ee832" stroke="black" cx="2082.5" cy="-99.87" rx="293.4" ry="26.74"/>
<text text-anchor="middle" x="2082.5" y="-103.67" font-family="Helvetica,sans-Serif" font-size="14.00">✓ Create</text>
<text text-anchor="middle" x="2082.5" y="-88.67" font-family="Helvetica,sans-Serif" font-size="14.00">solution_accelerators/ChatAppInterface/public/index.html</text>
</g>
<!-- 71fe2871&#45;95eb&#45;4096&#45;9655&#45;e5376c703143&#45;&gt;3f5f2a92&#45;a932&#45;4e95&#45;9307&#45;173ba9678691 -->
<g id="edge6" class="edge">
<title>71fe2871&#45;95eb&#45;4096&#45;9655&#45;e5376c703143&#45;&gt;3f5f2a92&#45;a932&#45;4e95&#45;9307&#45;173ba9678691</title>
<path fill="none" stroke="black" d="M1737.35,-99.87C1751.19,-99.87 1765.02,-99.87 1778.85,-99.87"/>
<polygon fill="black" stroke="black" points="1778.92,-103.37 1788.92,-99.87 1778.92,-96.37 1778.92,-103.37"/>
</g>
<!-- ba79748d&#45;b34e&#45;441a&#45;b013&#45;49bed3aec939 -->
<g id="node12" class="node">
<title>ba79748d&#45;b34e&#45;441a&#45;b013&#45;49bed3aec939</title>
<polygon fill="#0ee832" stroke="black" points="1760,-36 1215,-36 1215,0 1760,0 1760,-36"/>
<text text-anchor="middle" x="1487.5" y="-14.3" font-family="Helvetica,sans-Serif" font-size="14.00">✓ Run GitHub Actions for `solution_accelerators/ChatAppInterface/server.js`</text>
</g>
<!-- 71fe2871&#45;95eb&#45;4096&#45;9655&#45;e5376c703143&#45;&gt;ba79748d&#45;b34e&#45;441a&#45;b013&#45;49bed3aec939 -->
<g id="edge5" class="edge">
<title>71fe2871&#45;95eb&#45;4096&#45;9655&#45;e5376c703143&#45;&gt;ba79748d&#45;b34e&#45;441a&#45;b013&#45;49bed3aec939</title>
<path fill="none" stroke="black" stroke-dasharray="5,2" d="M1487.5,-72.72C1487.5,-64.27 1487.5,-54.89 1487.5,-46.36"/>
<polygon fill="black" stroke="black" points="1491,-46.15 1487.5,-36.15 1484,-46.15 1491,-46.15"/>
</g>
<!-- d231ebb4&#45;4f90&#45;40a9&#45;9065&#45;cb5ce253076e -->
<g id="node7" class="node">
<title>d231ebb4&#45;4f90&#45;40a9&#45;9065&#45;cb5ce253076e</title>
<ellipse fill="#0ee832" stroke="black" cx="2692.5" cy="-99.87" rx="270.64" ry="26.74"/>
<text text-anchor="middle" x="2692.5" y="-103.67" font-family="Helvetica,sans-Serif" font-size="14.00">✓ Create</text>
<text text-anchor="middle" x="2692.5" y="-88.67" font-family="Helvetica,sans-Serif" font-size="14.00">solution_accelerators/ChatAppInterface/public/app.js</text>
</g>
<!-- 3f5f2a92&#45;a932&#45;4e95&#45;9307&#45;173ba9678691&#45;&gt;d231ebb4&#45;4f90&#45;40a9&#45;9065&#45;cb5ce253076e -->
<g id="edge8" class="edge">
<title>3f5f2a92&#45;a932&#45;4e95&#45;9307&#45;173ba9678691&#45;&gt;d231ebb4&#45;4f90&#45;40a9&#45;9065&#45;cb5ce253076e</title>
<path fill="none" stroke="black" d="M2376.18,-99.87C2387.89,-99.87 2399.6,-99.87 2411.3,-99.87"/>
<polygon fill="black" stroke="black" points="2411.59,-103.37 2421.59,-99.87 2411.59,-96.37 2411.59,-103.37"/>
</g>
<!-- a80f71fc&#45;2223&#45;400d&#45;afc8&#45;46dc9942bdaa -->
<g id="node13" class="node">
<title>a80f71fc&#45;2223&#45;400d&#45;afc8&#45;46dc9942bdaa</title>
<polygon fill="#0ee832" stroke="black" points="2386.5,-36 1778.5,-36 1778.5,0 2386.5,0 2386.5,-36"/>
<text text-anchor="middle" x="2082.5" y="-14.3" font-family="Helvetica,sans-Serif" font-size="14.00">✓ Run GitHub Actions for `solution_accelerators/ChatAppInterface/public/index.html`</text>
</g>
<!-- 3f5f2a92&#45;a932&#45;4e95&#45;9307&#45;173ba9678691&#45;&gt;a80f71fc&#45;2223&#45;400d&#45;afc8&#45;46dc9942bdaa -->
<g id="edge7" class="edge">
<title>3f5f2a92&#45;a932&#45;4e95&#45;9307&#45;173ba9678691&#45;&gt;a80f71fc&#45;2223&#45;400d&#45;afc8&#45;46dc9942bdaa</title>
<path fill="none" stroke="black" stroke-dasharray="5,2" d="M2082.5,-72.72C2082.5,-64.27 2082.5,-54.89 2082.5,-46.36"/>
<polygon fill="black" stroke="black" points="2086,-46.15 2082.5,-36.15 2079,-46.15 2086,-46.15"/>
</g>
<!-- 4fb11c46&#45;4f13&#45;4bbd&#45;b735&#45;54e39c5504de -->
<g id="node8" class="node">
<title>4fb11c46&#45;4f13&#45;4bbd&#45;b735&#45;54e39c5504de</title>
<ellipse fill="#0ee832" stroke="black" cx="3298.5" cy="-99.87" rx="288.5" ry="26.74"/>
<text text-anchor="middle" x="3298.5" y="-103.67" font-family="Helvetica,sans-Serif" font-size="14.00">✓ Create</text>
<text text-anchor="middle" x="3298.5" y="-88.67" font-family="Helvetica,sans-Serif" font-size="14.00">solution_accelerators/ChatAppInterface/public/styles.css</text>
</g>
<!-- d231ebb4&#45;4f90&#45;40a9&#45;9065&#45;cb5ce253076e&#45;&gt;4fb11c46&#45;4f13&#45;4bbd&#45;b735&#45;54e39c5504de -->
<g id="edge10" class="edge">
<title>d231ebb4&#45;4f90&#45;40a9&#45;9065&#45;cb5ce253076e&#45;&gt;4fb11c46&#45;4f13&#45;4bbd&#45;b735&#45;54e39c5504de</title>
<path fill="none" stroke="black" d="M2963.54,-99.87C2975.64,-99.87 2987.74,-99.87 2999.83,-99.87"/>
<polygon fill="black" stroke="black" points="2999.99,-103.37 3009.99,-99.87 2999.99,-96.37 2999.99,-103.37"/>
</g>
<!-- 50724888&#45;4e7c&#45;4b28&#45;bbf8&#45;ca43f5f056ef -->
<g id="node14" class="node">
<title>50724888&#45;4e7c&#45;4b28&#45;bbf8&#45;ca43f5f056ef</title>
<polygon fill="#0ee832" stroke="black" points="2980,-36 2405,-36 2405,0 2980,0 2980,-36"/>
<text text-anchor="middle" x="2692.5" y="-14.3" font-family="Helvetica,sans-Serif" font-size="14.00">✓ Run GitHub Actions for `solution_accelerators/ChatAppInterface/public/app.js`</text>
</g>
<!-- d231ebb4&#45;4f90&#45;40a9&#45;9065&#45;cb5ce253076e&#45;&gt;50724888&#45;4e7c&#45;4b28&#45;bbf8&#45;ca43f5f056ef -->
<g id="edge9" class="edge">
<title>d231ebb4&#45;4f90&#45;40a9&#45;9065&#45;cb5ce253076e&#45;&gt;50724888&#45;4e7c&#45;4b28&#45;bbf8&#45;ca43f5f056ef</title>
<path fill="none" stroke="black" stroke-dasharray="5,2" d="M2692.5,-72.72C2692.5,-64.27 2692.5,-54.89 2692.5,-46.36"/>
<polygon fill="black" stroke="black" points="2696,-46.15 2692.5,-36.15 2689,-46.15 2696,-46.15"/>
</g>
<!-- f3e93569&#45;5d13&#45;4cc5&#45;a4f9&#45;aa0998fdb318 -->
<g id="node9" class="node">
<title>f3e93569&#45;5d13&#45;4cc5&#45;a4f9&#45;aa0998fdb318</title>
<ellipse fill="#0ee832" stroke="black" cx="3821.5" cy="-99.87" rx="179.71" ry="26.74"/>
<text text-anchor="middle" x="3821.5" y="-103.67" font-family="Helvetica,sans-Serif" font-size="14.00">✓ Modify</text>
<text text-anchor="middle" x="3821.5" y="-88.67" font-family="Helvetica,sans-Serif" font-size="14.00">solution_accelerators/README.md</text>
</g>
<!-- 4fb11c46&#45;4f13&#45;4bbd&#45;b735&#45;54e39c5504de&#45;&gt;f3e93569&#45;5d13&#45;4cc5&#45;a4f9&#45;aa0998fdb318 -->
<g id="edge12" class="edge">
<title>4fb11c46&#45;4f13&#45;4bbd&#45;b735&#45;54e39c5504de&#45;&gt;f3e93569&#45;5d13&#45;4cc5&#45;a4f9&#45;aa0998fdb318</title>
<path fill="none" stroke="black" d="M3587.07,-99.87C3601.83,-99.87 3616.58,-99.87 3631.34,-99.87"/>
<polygon fill="black" stroke="black" points="3631.56,-103.37 3641.56,-99.87 3631.56,-96.37 3631.56,-103.37"/>
</g>
<!-- d1ef6c05&#45;ae8b&#45;4ca7&#45;91a7&#45;0fae56fbcba9 -->
<g id="node15" class="node">
<title>d1ef6c05&#45;ae8b&#45;4ca7&#45;91a7&#45;0fae56fbcba9</title>
<polygon fill="#0ee832" stroke="black" points="3599,-36 2998,-36 2998,0 3599,0 3599,-36"/>
<text text-anchor="middle" x="3298.5" y="-14.3" font-family="Helvetica,sans-Serif" font-size="14.00">✓ Run GitHub Actions for `solution_accelerators/ChatAppInterface/public/styles.css`</text>
</g>
<!-- 4fb11c46&#45;4f13&#45;4bbd&#45;b735&#45;54e39c5504de&#45;&gt;d1ef6c05&#45;ae8b&#45;4ca7&#45;91a7&#45;0fae56fbcba9 -->
<g id="edge11" class="edge">
<title>4fb11c46&#45;4f13&#45;4bbd&#45;b735&#45;54e39c5504de&#45;&gt;d1ef6c05&#45;ae8b&#45;4ca7&#45;91a7&#45;0fae56fbcba9</title>
<path fill="none" stroke="black" stroke-dasharray="5,2" d="M3298.5,-72.72C3298.5,-64.27 3298.5,-54.89 3298.5,-46.36"/>
<polygon fill="black" stroke="black" points="3302,-46.15 3298.5,-36.15 3295,-46.15 3302,-46.15"/>
</g>
<!-- f3e93569&#45;5d13&#45;4cc5&#45;a4f9&#45;aa0998fdb318&#45;&gt;end -->
<g id="edge15" class="edge">
<title>f3e93569&#45;5d13&#45;4cc5&#45;a4f9&#45;aa0998fdb318&#45;&gt;end</title>
<path fill="none" stroke="black" d="M4001.28,-99.87C4021.44,-99.87 4038.42,-99.87 4048.75,-99.87"/>
<polygon fill="black" stroke="black" points="4048.86,-103.37 4058.86,-99.87 4048.86,-96.37 4048.86,-103.37"/>
<text text-anchor="middle" x="4030.05" y="-106.67" font-family="Helvetica,sans-Serif" font-size="14.00">Finish</text>
</g>
<!-- 18e7f66d&#45;5901&#45;401d&#45;acaa&#45;829a337a0dbb -->
<g id="node16" class="node">
<title>18e7f66d&#45;5901&#45;401d&#45;acaa&#45;829a337a0dbb</title>
<polygon fill="#0ee832" stroke="black" points="4064,-36 3617,-36 3617,0 4064,0 4064,-36"/>
<text text-anchor="middle" x="3840.5" y="-14.3" font-family="Helvetica,sans-Serif" font-size="14.00">✓ Run GitHub Actions for `solution_accelerators/README.md`</text>
</g>
<!-- f3e93569&#45;5d13&#45;4cc5&#45;a4f9&#45;aa0998fdb318&#45;&gt;18e7f66d&#45;5901&#45;401d&#45;acaa&#45;829a337a0dbb -->
<g id="edge13" class="edge">
<title>f3e93569&#45;5d13&#45;4cc5&#45;a4f9&#45;aa0998fdb318&#45;&gt;18e7f66d&#45;5901&#45;401d&#45;acaa&#45;829a337a0dbb</title>
<path fill="none" stroke="black" stroke-dasharray="5,2" d="M3827.72,-72.72C3829.75,-64.18 3832.01,-54.68 3834.06,-46.08"/>
<polygon fill="black" stroke="black" points="3837.51,-46.68 3836.42,-36.15 3830.7,-45.06 3837.51,-46.68"/>
</g>
</g>
</svg>
