<?xml version="1.0" encoding="UTF-8" standalone="no"?>
<!DOCTYPE svg PUBLIC "-//W3C//DTD SVG 1.1//EN"
 "http://www.w3.org/Graphics/SVG/1.1/DTD/svg11.dtd">
<!-- Generated by graphviz version 2.43.0 (0)
 -->
<!-- Title: %3 Pages: 1 -->
<svg width="727pt" height="238pt"
 viewBox="0.00 0.00 727.00 237.74" xmlns="http://www.w3.org/2000/svg" xmlns:xlink="http://www.w3.org/1999/xlink">
<g id="graph0" class="graph" transform="scale(1 1) rotate(0) translate(36 201.74)">
<title>%3</title>
<polygon fill="dimgray" stroke="transparent" points="-36,36 -36,-201.74 691,-201.74 691,36 -36,36"/>
<text text-anchor="middle" x="327.5" y="-150.54" font-family="Helvetica,sans-Serif" font-size="14.00">Sweep&#39;s Plan &amp; Progress</text>
<!-- start -->
<g id="node1" class="node">
<title>start</title>
</g>
<!-- 5168a2d2&#45;56d2&#45;42f7&#45;8cf6&#45;87777106d620 -->
<g id="node3" class="node">
<title>5168a2d2&#45;56d2&#45;42f7&#45;8cf6&#45;87777106d620</title>
<ellipse fill="yellow" stroke="black" cx="324.5" cy="-99.87" rx="272.47" ry="26.74"/>
<text text-anchor="middle" x="324.5" y="-103.67" font-family="Helvetica,sans-Serif" font-size="14.00">⋯ Modify</text>
<text text-anchor="middle" x="324.5" y="-88.67" font-family="Helvetica,sans-Serif" font-size="14.00">solution_accelerators/ChatAppInterface/package.json</text>
</g>
<!-- start&#45;&gt;5168a2d2&#45;56d2&#45;42f7&#45;8cf6&#45;87777106d620 -->
<g id="edge2" class="edge">
<title>start&#45;&gt;5168a2d2&#45;56d2&#45;42f7&#45;8cf6&#45;87777106d620</title>
<path fill="none" stroke="black" d="M1.03,-99.87C4,-99.87 19.35,-99.87 41.89,-99.87"/>
<polygon fill="black" stroke="black" points="41.97,-103.37 51.97,-99.87 41.97,-96.37 41.97,-103.37"/>
<text text-anchor="middle" x="26.63" y="-106.67" font-family="Helvetica,sans-Serif" font-size="14.00">Start</text>
</g>
<!-- end -->
<g id="node2" class="node">
<title>end</title>
</g>
<!-- 5168a2d2&#45;56d2&#45;42f7&#45;8cf6&#45;87777106d620&#45;&gt;end -->
<g id="edge3" class="edge">
<title>5168a2d2&#45;56d2&#45;42f7&#45;8cf6&#45;87777106d620&#45;&gt;end</title>
<path fill="none" stroke="black" d="M597.02,-99.87C617.36,-99.87 633.83,-99.87 643.85,-99.87"/>
<polygon fill="black" stroke="black" points="643.9,-103.37 653.9,-99.87 643.9,-96.37 643.9,-103.37"/>
<text text-anchor="middle" x="625.37" y="-106.67" font-family="Helvetica,sans-Serif" font-size="14.00">Finish</text>
</g>
<!-- 937fa28d&#45;b088&#45;435f&#45;8338&#45;b6a0b7a06f0a -->
<g id="node4" class="node">
<title>937fa28d&#45;b088&#45;435f&#45;8338&#45;b6a0b7a06f0a</title>
<polygon fill="white" stroke="black" points="612.5,-36 36.5,-36 36.5,0 612.5,0 612.5,-36"/>
<text text-anchor="middle" x="324.5" y="-14.3" font-family="Helvetica,sans-Serif" font-size="14.00">▶ Run GitHub Actions for `solution_accelerators/ChatAppInterface/package.json`</text>
</g>
<!-- 5168a2d2&#45;56d2&#45;42f7&#45;8cf6&#45;87777106d620&#45;&gt;937fa28d&#45;b088&#45;435f&#45;8338&#45;b6a0b7a06f0a -->
<g id="edge1" class="edge">
<title>5168a2d2&#45;56d2&#45;42f7&#45;8cf6&#45;87777106d620&#45;&gt;937fa28d&#45;b088&#45;435f&#45;8338&#45;b6a0b7a06f0a</title>
<path fill="none" stroke="black" stroke-dasharray="5,2" d="M324.5,-72.72C324.5,-64.27 324.5,-54.89 324.5,-46.36"/>
<polygon fill="black" stroke="black" points="328,-46.15 324.5,-36.15 321,-46.15 328,-46.15"/>
</g>
</g>
</svg>
