<?xml version="1.0" encoding="UTF-8" standalone="no"?>
<!DOCTYPE svg PUBLIC "-//W3C//DTD SVG 1.1//EN"
 "http://www.w3.org/Graphics/SVG/1.1/DTD/svg11.dtd">
<!-- Generated by graphviz version 2.43.0 (0)
 -->
<!-- Title: %3 Pages: 1 -->
<svg width="4128pt" height="238pt"
 viewBox="0.00 0.00 4127.50 237.74" xmlns="http://www.w3.org/2000/svg" xmlns:xlink="http://www.w3.org/1999/xlink">
<g id="graph0" class="graph" transform="scale(1 1) rotate(0) translate(36 201.74)">
<title>%3</title>
<polygon fill="dimgray" stroke="transparent" points="-36,36 -36,-201.74 4091.5,-201.74 4091.5,36 -36,36"/>
<text text-anchor="middle" x="2027.75" y="-150.54" font-family="Helvetica,sans-Serif" font-size="14.00">Sweep&#39;s Plan &amp; Progress</text>
<!-- start -->
<g id="node1" class="node">
<title>start</title>
</g>
<!-- b667a902&#45;8881&#45;4183&#45;a8d7&#45;c2a92be8392e -->
<g id="node3" class="node">
<title>b667a902&#45;8881&#45;4183&#45;a8d7&#45;c2a92be8392e</title>
<ellipse fill="#0ee832" stroke="black" cx="321.5" cy="-99.87" rx="269.32" ry="26.74"/>
<text text-anchor="middle" x="321.5" y="-103.67" font-family="Helvetica,sans-Serif" font-size="14.00">✓ Create</text>
<text text-anchor="middle" x="321.5" y="-88.67" font-family="Helvetica,sans-Serif" font-size="14.00">solution_accelerators/ChatAppInterface/README.md</text>
</g>
<!-- start&#45;&gt;b667a902&#45;8881&#45;4183&#45;a8d7&#45;c2a92be8392e -->
<g id="edge14" class="edge">
<title>start&#45;&gt;b667a902&#45;8881&#45;4183&#45;a8d7&#45;c2a92be8392e</title>
<path fill="none" stroke="black" d="M1.02,-99.87C3.98,-99.87 19.3,-99.87 41.79,-99.87"/>
<polygon fill="black" stroke="black" points="41.84,-103.37 51.84,-99.87 41.84,-96.37 41.84,-103.37"/>
<text text-anchor="middle" x="26.55" y="-106.67" font-family="Helvetica,sans-Serif" font-size="14.00">Start</text>
</g>
<!-- end -->
<g id="node2" class="node">
<title>end</title>
</g>
<!-- 8a1e5688&#45;c758&#45;4f21&#45;8a02&#45;cc1cf1b67948 -->
<g id="node4" class="node">
<title>8a1e5688&#45;c758&#45;4f21&#45;8a02&#45;cc1cf1b67948</title>
<ellipse fill="white" stroke="black" cx="907.5" cy="-99.87" rx="272.47" ry="26.74"/>
<text text-anchor="middle" x="907.5" y="-103.67" font-family="Helvetica,sans-Serif" font-size="14.00">▶ Create</text>
<text text-anchor="middle" x="907.5" y="-88.67" font-family="Helvetica,sans-Serif" font-size="14.00">solution_accelerators/ChatAppInterface/package.json</text>
</g>
<!-- b667a902&#45;8881&#45;4183&#45;a8d7&#45;c2a92be8392e&#45;&gt;8a1e5688&#45;c758&#45;4f21&#45;8a02&#45;cc1cf1b67948 -->
<g id="edge2" class="edge">
<title>b667a902&#45;8881&#45;4183&#45;a8d7&#45;c2a92be8392e&#45;&gt;8a1e5688&#45;c758&#45;4f21&#45;8a02&#45;cc1cf1b67948</title>
<path fill="none" stroke="black" d="M591.04,-99.87C602.43,-99.87 613.82,-99.87 625.22,-99.87"/>
<polygon fill="black" stroke="black" points="625.23,-103.37 635.23,-99.87 625.23,-96.37 625.23,-103.37"/>
</g>
<!-- 7b0d3174&#45;107f&#45;4b57&#45;8574&#45;67aae83434aa -->
<g id="node10" class="node">
<title>7b0d3174&#45;107f&#45;4b57&#45;8574&#45;67aae83434aa</title>
<polygon fill="yellow" stroke="black" points="601.5,-36 25.5,-36 25.5,0 601.5,0 601.5,-36"/>
<text text-anchor="middle" x="313.5" y="-14.3" font-family="Helvetica,sans-Serif" font-size="14.00">⋯ Run GitHub Actions for `solution_accelerators/ChatAppInterface/README.md`</text>
</g>
<!-- b667a902&#45;8881&#45;4183&#45;a8d7&#45;c2a92be8392e&#45;&gt;7b0d3174&#45;107f&#45;4b57&#45;8574&#45;67aae83434aa -->
<g id="edge1" class="edge">
<title>b667a902&#45;8881&#45;4183&#45;a8d7&#45;c2a92be8392e&#45;&gt;7b0d3174&#45;107f&#45;4b57&#45;8574&#45;67aae83434aa</title>
<path fill="none" stroke="black" stroke-dasharray="5,2" d="M318.88,-72.72C318.03,-64.27 317.09,-54.89 316.24,-46.36"/>
<polygon fill="black" stroke="black" points="319.7,-45.75 315.22,-36.15 312.73,-46.45 319.7,-45.75"/>
</g>
<!-- 71fe2871&#45;95eb&#45;4096&#45;9655&#45;e5376c703143 -->
<g id="node5" class="node">
<title>71fe2871&#45;95eb&#45;4096&#45;9655&#45;e5376c703143</title>
<ellipse fill="white" stroke="black" cx="1485.5" cy="-99.87" rx="249.72" ry="26.74"/>
<text text-anchor="middle" x="1485.5" y="-103.67" font-family="Helvetica,sans-Serif" font-size="14.00">▶ Create</text>
<text text-anchor="middle" x="1485.5" y="-88.67" font-family="Helvetica,sans-Serif" font-size="14.00">solution_accelerators/ChatAppInterface/server.js</text>
</g>
<!-- 8a1e5688&#45;c758&#45;4f21&#45;8a02&#45;cc1cf1b67948&#45;&gt;71fe2871&#45;95eb&#45;4096&#45;9655&#45;e5376c703143 -->
<g id="edge4" class="edge">
<title>8a1e5688&#45;c758&#45;4f21&#45;8a02&#45;cc1cf1b67948&#45;&gt;71fe2871&#45;95eb&#45;4096&#45;9655&#45;e5376c703143</title>
<path fill="none" stroke="black" d="M1179.85,-99.87C1195.11,-99.87 1210.37,-99.87 1225.64,-99.87"/>
<polygon fill="black" stroke="black" points="1225.67,-103.37 1235.67,-99.87 1225.67,-96.37 1225.67,-103.37"/>
</g>
<!-- ea462787&#45;1ee4&#45;45e9&#45;883d&#45;dba02ca94382 -->
<g id="node11" class="node">
<title>ea462787&#45;1ee4&#45;45e9&#45;883d&#45;dba02ca94382</title>
<polygon fill="white" stroke="black" points="1195.5,-36 619.5,-36 619.5,0 1195.5,0 1195.5,-36"/>
<text text-anchor="middle" x="907.5" y="-14.3" font-family="Helvetica,sans-Serif" font-size="14.00">▶ Run GitHub Actions for `solution_accelerators/ChatAppInterface/package.json`</text>
</g>
<!-- 8a1e5688&#45;c758&#45;4f21&#45;8a02&#45;cc1cf1b67948&#45;&gt;ea462787&#45;1ee4&#45;45e9&#45;883d&#45;dba02ca94382 -->
<g id="edge3" class="edge">
<title>8a1e5688&#45;c758&#45;4f21&#45;8a02&#45;cc1cf1b67948&#45;&gt;ea462787&#45;1ee4&#45;45e9&#45;883d&#45;dba02ca94382</title>
<path fill="none" stroke="black" stroke-dasharray="5,2" d="M907.5,-72.72C907.5,-64.27 907.5,-54.89 907.5,-46.36"/>
<polygon fill="black" stroke="black" points="911,-46.15 907.5,-36.15 904,-46.15 911,-46.15"/>
</g>
<!-- 3f5f2a92&#45;a932&#45;4e95&#45;9307&#45;173ba9678691 -->
<g id="node6" class="node">
<title>3f5f2a92&#45;a932&#45;4e95&#45;9307&#45;173ba9678691</title>
<ellipse fill="white" stroke="black" cx="2078.5" cy="-99.87" rx="293.4" ry="26.74"/>
<text text-anchor="middle" x="2078.5" y="-103.67" font-family="Helvetica,sans-Serif" font-size="14.00">▶ Create</text>
<text text-anchor="middle" x="2078.5" y="-88.67" font-family="Helvetica,sans-Serif" font-size="14.00">solution_accelerators/ChatAppInterface/public/index.html</text>
</g>
<!-- 71fe2871&#45;95eb&#45;4096&#45;9655&#45;e5376c703143&#45;&gt;3f5f2a92&#45;a932&#45;4e95&#45;9307&#45;173ba9678691 -->
<g id="edge6" class="edge">
<title>71fe2871&#45;95eb&#45;4096&#45;9655&#45;e5376c703143&#45;&gt;3f5f2a92&#45;a932&#45;4e95&#45;9307&#45;173ba9678691</title>
<path fill="none" stroke="black" d="M1735.38,-99.87C1748.55,-99.87 1761.73,-99.87 1774.9,-99.87"/>
<polygon fill="black" stroke="black" points="1774.97,-103.37 1784.97,-99.87 1774.97,-96.37 1774.97,-103.37"/>
</g>
<!-- ba79748d&#45;b34e&#45;441a&#45;b013&#45;49bed3aec939 -->
<g id="node12" class="node">
<title>ba79748d&#45;b34e&#45;441a&#45;b013&#45;49bed3aec939</title>
<polygon fill="white" stroke="black" points="1757.5,-36 1213.5,-36 1213.5,0 1757.5,0 1757.5,-36"/>
<text text-anchor="middle" x="1485.5" y="-14.3" font-family="Helvetica,sans-Serif" font-size="14.00">▶ Run GitHub Actions for `solution_accelerators/ChatAppInterface/server.js`</text>
</g>
<!-- 71fe2871&#45;95eb&#45;4096&#45;9655&#45;e5376c703143&#45;&gt;ba79748d&#45;b34e&#45;441a&#45;b013&#45;49bed3aec939 -->
<g id="edge5" class="edge">
<title>71fe2871&#45;95eb&#45;4096&#45;9655&#45;e5376c703143&#45;&gt;ba79748d&#45;b34e&#45;441a&#45;b013&#45;49bed3aec939</title>
<path fill="none" stroke="black" stroke-dasharray="5,2" d="M1485.5,-72.72C1485.5,-64.27 1485.5,-54.89 1485.5,-46.36"/>
<polygon fill="black" stroke="black" points="1489,-46.15 1485.5,-36.15 1482,-46.15 1489,-46.15"/>
</g>
<!-- d231ebb4&#45;4f90&#45;40a9&#45;9065&#45;cb5ce253076e -->
<g id="node7" class="node">
<title>d231ebb4&#45;4f90&#45;40a9&#45;9065&#45;cb5ce253076e</title>
<ellipse fill="white" stroke="black" cx="2686.5" cy="-99.87" rx="270.64" ry="26.74"/>
<text text-anchor="middle" x="2686.5" y="-103.67" font-family="Helvetica,sans-Serif" font-size="14.00">▶ Create</text>
<text text-anchor="middle" x="2686.5" y="-88.67" font-family="Helvetica,sans-Serif" font-size="14.00">solution_accelerators/ChatAppInterface/public/app.js</text>
</g>
<!-- 3f5f2a92&#45;a932&#45;4e95&#45;9307&#45;173ba9678691&#45;&gt;d231ebb4&#45;4f90&#45;40a9&#45;9065&#45;cb5ce253076e -->
<g id="edge8" class="edge">
<title>3f5f2a92&#45;a932&#45;4e95&#45;9307&#45;173ba9678691&#45;&gt;d231ebb4&#45;4f90&#45;40a9&#45;9065&#45;cb5ce253076e</title>
<path fill="none" stroke="black" d="M2372.11,-99.87C2383.16,-99.87 2394.21,-99.87 2405.25,-99.87"/>
<polygon fill="black" stroke="black" points="2405.4,-103.37 2415.4,-99.87 2405.4,-96.37 2405.4,-103.37"/>
</g>
<!-- a80f71fc&#45;2223&#45;400d&#45;afc8&#45;46dc9942bdaa -->
<g id="node13" class="node">
<title>a80f71fc&#45;2223&#45;400d&#45;afc8&#45;46dc9942bdaa</title>
<polygon fill="white" stroke="black" points="2381.5,-36 1775.5,-36 1775.5,0 2381.5,0 2381.5,-36"/>
<text text-anchor="middle" x="2078.5" y="-14.3" font-family="Helvetica,sans-Serif" font-size="14.00">▶ Run GitHub Actions for `solution_accelerators/ChatAppInterface/public/index.html`</text>
</g>
<!-- 3f5f2a92&#45;a932&#45;4e95&#45;9307&#45;173ba9678691&#45;&gt;a80f71fc&#45;2223&#45;400d&#45;afc8&#45;46dc9942bdaa -->
<g id="edge7" class="edge">
<title>3f5f2a92&#45;a932&#45;4e95&#45;9307&#45;173ba9678691&#45;&gt;a80f71fc&#45;2223&#45;400d&#45;afc8&#45;46dc9942bdaa</title>
<path fill="none" stroke="black" stroke-dasharray="5,2" d="M2078.5,-72.72C2078.5,-64.27 2078.5,-54.89 2078.5,-46.36"/>
<polygon fill="black" stroke="black" points="2082,-46.15 2078.5,-36.15 2075,-46.15 2082,-46.15"/>
</g>
<!-- 4fb11c46&#45;4f13&#45;4bbd&#45;b735&#45;54e39c5504de -->
<g id="node8" class="node">
<title>4fb11c46&#45;4f13&#45;4bbd&#45;b735&#45;54e39c5504de</title>
<ellipse fill="white" stroke="black" cx="3291.5" cy="-99.87" rx="288.5" ry="26.74"/>
<text text-anchor="middle" x="3291.5" y="-103.67" font-family="Helvetica,sans-Serif" font-size="14.00">▶ Create</text>
<text text-anchor="middle" x="3291.5" y="-88.67" font-family="Helvetica,sans-Serif" font-size="14.00">solution_accelerators/ChatAppInterface/public/styles.css</text>
</g>
<!-- d231ebb4&#45;4f90&#45;40a9&#45;9065&#45;cb5ce253076e&#45;&gt;4fb11c46&#45;4f13&#45;4bbd&#45;b735&#45;54e39c5504de -->
<g id="edge10" class="edge">
<title>d231ebb4&#45;4f90&#45;40a9&#45;9065&#45;cb5ce253076e&#45;&gt;4fb11c46&#45;4f13&#45;4bbd&#45;b735&#45;54e39c5504de</title>
<path fill="none" stroke="black" d="M2957.39,-99.87C2969.08,-99.87 2980.78,-99.87 2992.47,-99.87"/>
<polygon fill="black" stroke="black" points="2992.74,-103.37 3002.74,-99.87 2992.74,-96.37 2992.74,-103.37"/>
</g>
<!-- 50724888&#45;4e7c&#45;4b28&#45;bbf8&#45;ca43f5f056ef -->
<g id="node14" class="node">
<title>50724888&#45;4e7c&#45;4b28&#45;bbf8&#45;ca43f5f056ef</title>
<polygon fill="white" stroke="black" points="2973.5,-36 2399.5,-36 2399.5,0 2973.5,0 2973.5,-36"/>
<text text-anchor="middle" x="2686.5" y="-14.3" font-family="Helvetica,sans-Serif" font-size="14.00">▶ Run GitHub Actions for `solution_accelerators/ChatAppInterface/public/app.js`</text>
</g>
<!-- d231ebb4&#45;4f90&#45;40a9&#45;9065&#45;cb5ce253076e&#45;&gt;50724888&#45;4e7c&#45;4b28&#45;bbf8&#45;ca43f5f056ef -->
<g id="edge9" class="edge">
<title>d231ebb4&#45;4f90&#45;40a9&#45;9065&#45;cb5ce253076e&#45;&gt;50724888&#45;4e7c&#45;4b28&#45;bbf8&#45;ca43f5f056ef</title>
<path fill="none" stroke="black" stroke-dasharray="5,2" d="M2686.5,-72.72C2686.5,-64.27 2686.5,-54.89 2686.5,-46.36"/>
<polygon fill="black" stroke="black" points="2690,-46.15 2686.5,-36.15 2683,-46.15 2690,-46.15"/>
</g>
<!-- f3e93569&#45;5d13&#45;4cc5&#45;a4f9&#45;aa0998fdb318 -->
<g id="node9" class="node">
<title>f3e93569&#45;5d13&#45;4cc5&#45;a4f9&#45;aa0998fdb318</title>
<ellipse fill="white" stroke="black" cx="3814.5" cy="-99.87" rx="179.71" ry="26.74"/>
<text text-anchor="middle" x="3814.5" y="-103.67" font-family="Helvetica,sans-Serif" font-size="14.00">▶ Modify</text>
<text text-anchor="middle" x="3814.5" y="-88.67" font-family="Helvetica,sans-Serif" font-size="14.00">solution_accelerators/README.md</text>
</g>
<!-- 4fb11c46&#45;4f13&#45;4bbd&#45;b735&#45;54e39c5504de&#45;&gt;f3e93569&#45;5d13&#45;4cc5&#45;a4f9&#45;aa0998fdb318 -->
<g id="edge12" class="edge">
<title>4fb11c46&#45;4f13&#45;4bbd&#45;b735&#45;54e39c5504de&#45;&gt;f3e93569&#45;5d13&#45;4cc5&#45;a4f9&#45;aa0998fdb318</title>
<path fill="none" stroke="black" d="M3580.07,-99.87C3594.83,-99.87 3609.58,-99.87 3624.34,-99.87"/>
<polygon fill="black" stroke="black" points="3624.56,-103.37 3634.56,-99.87 3624.56,-96.37 3624.56,-103.37"/>
</g>
<!-- d1ef6c05&#45;ae8b&#45;4ca7&#45;91a7&#45;0fae56fbcba9 -->
<g id="node15" class="node">
<title>d1ef6c05&#45;ae8b&#45;4ca7&#45;91a7&#45;0fae56fbcba9</title>
<polygon fill="white" stroke="black" points="3591,-36 2992,-36 2992,0 3591,0 3591,-36"/>
<text text-anchor="middle" x="3291.5" y="-14.3" font-family="Helvetica,sans-Serif" font-size="14.00">▶ Run GitHub Actions for `solution_accelerators/ChatAppInterface/public/styles.css`</text>
</g>
<!-- 4fb11c46&#45;4f13&#45;4bbd&#45;b735&#45;54e39c5504de&#45;&gt;d1ef6c05&#45;ae8b&#45;4ca7&#45;91a7&#45;0fae56fbcba9 -->
<g id="edge11" class="edge">
<title>4fb11c46&#45;4f13&#45;4bbd&#45;b735&#45;54e39c5504de&#45;&gt;d1ef6c05&#45;ae8b&#45;4ca7&#45;91a7&#45;0fae56fbcba9</title>
<path fill="none" stroke="black" stroke-dasharray="5,2" d="M3291.5,-72.72C3291.5,-64.27 3291.5,-54.89 3291.5,-46.36"/>
<polygon fill="black" stroke="black" points="3295,-46.15 3291.5,-36.15 3288,-46.15 3295,-46.15"/>
</g>
<!-- f3e93569&#45;5d13&#45;4cc5&#45;a4f9&#45;aa0998fdb318&#45;&gt;end -->
<g id="edge15" class="edge">
<title>f3e93569&#45;5d13&#45;4cc5&#45;a4f9&#45;aa0998fdb318&#45;&gt;end</title>
<path fill="none" stroke="black" d="M3994.28,-99.87C4014.44,-99.87 4031.42,-99.87 4041.75,-99.87"/>
<polygon fill="black" stroke="black" points="4041.86,-103.37 4051.86,-99.87 4041.86,-96.37 4041.86,-103.37"/>
<text text-anchor="middle" x="4023.05" y="-106.67" font-family="Helvetica,sans-Serif" font-size="14.00">Finish</text>
</g>
<!-- 18e7f66d&#45;5901&#45;401d&#45;acaa&#45;829a337a0dbb -->
<g id="node16" class="node">
<title>18e7f66d&#45;5901&#45;401d&#45;acaa&#45;829a337a0dbb</title>
<polygon fill="white" stroke="black" points="4055.5,-36 3609.5,-36 3609.5,0 4055.5,0 4055.5,-36"/>
<text text-anchor="middle" x="3832.5" y="-14.3" font-family="Helvetica,sans-Serif" font-size="14.00">▶ Run GitHub Actions for `solution_accelerators/README.md`</text>
</g>
<!-- f3e93569&#45;5d13&#45;4cc5&#45;a4f9&#45;aa0998fdb318&#45;&gt;18e7f66d&#45;5901&#45;401d&#45;acaa&#45;829a337a0dbb -->
<g id="edge13" class="edge">
<title>f3e93569&#45;5d13&#45;4cc5&#45;a4f9&#45;aa0998fdb318&#45;&gt;18e7f66d&#45;5901&#45;401d&#45;acaa&#45;829a337a0dbb</title>
<path fill="none" stroke="black" stroke-dasharray="5,2" d="M3820.39,-72.72C3822.32,-64.18 3824.46,-54.68 3826.4,-46.08"/>
<polygon fill="black" stroke="black" points="3829.85,-46.67 3828.64,-36.15 3823.02,-45.13 3829.85,-46.67"/>
</g>
</g>
</svg>
